<?xml version="1.0" encoding="utf-8"?>
<!-- Generator: Adobe Illustrator 22.0.1, SVG Export Plug-In . SVG Version: 6.00 Build 0)  -->
<svg version="1.1" baseProfile="basic" id="Layer_1"
	 xmlns="http://www.w3.org/2000/svg" xmlns:xlink="http://www.w3.org/1999/xlink" x="0px" y="0px" viewBox="0 0 1600 1200"
	 xml:space="preserve">
<g>
	<g>
		<path fill="#D1D3D4" d="M612.144,640.808c-6.527,0-11.872-1.348-16.032-4.043c-4.164-2.696-7.189-5.889-9.081-9.577l7.662-4.398
			c1.703,2.838,3.901,5.203,6.597,7.094c2.696,1.894,6.172,2.838,10.428,2.838c3.973,0,7.045-0.78,9.222-2.341
			c2.174-1.561,3.263-3.711,3.263-6.455c0-1.607-0.333-2.931-0.993-3.973c-0.663-1.04-1.632-1.938-2.909-2.696
			c-1.277-0.756-2.862-1.44-4.753-2.057c-1.893-0.614-4.114-1.3-6.668-2.058c-2.271-0.66-4.494-1.419-6.668-2.27
			c-2.177-0.852-4.068-1.938-5.675-3.264c-1.609-1.323-2.908-2.955-3.901-4.895c-0.993-1.938-1.49-4.278-1.49-7.023
			c0-5.107,1.867-9.056,5.604-11.847c3.735-2.789,8.3-4.186,13.691-4.186c4.54,0,8.417,0.852,11.634,2.554
			c3.214,1.703,5.864,4.021,7.945,6.952l-6.81,5.25c-1.514-2.08-3.312-3.711-5.392-4.896c-2.082-1.181-4.54-1.773-7.377-1.773
			c-3.217,0-5.724,0.688-7.52,2.058c-1.798,1.372-2.696,3.192-2.696,5.462c0,1.419,0.235,2.603,0.709,3.548
			c0.472,0.946,1.252,1.773,2.341,2.482c1.086,0.709,2.529,1.372,4.327,1.986c1.796,0.616,3.973,1.301,6.526,2.058
			c2.458,0.662,4.871,1.442,7.236,2.341c2.363,0.899,4.445,2.035,6.243,3.404c1.796,1.373,3.239,3.051,4.327,5.037
			c1.086,1.986,1.632,4.398,1.632,7.235c0,5.015-1.727,9.176-5.179,12.485C624.935,639.155,619.521,640.808,612.144,640.808z"/>
		<path fill="#D1D3D4" d="M674.994,640.808c-3.973,0-7.661-0.78-11.066-2.341s-6.362-3.688-8.867-6.385
			c-2.507-2.695-4.494-5.91-5.959-9.647c-1.468-3.735-2.199-7.825-2.199-12.272c0-4.35,0.709-8.393,2.128-12.131
			c1.418-3.735,3.405-6.951,5.958-9.647c2.554-2.695,5.556-4.823,9.009-6.384c3.452-1.562,7.165-2.342,11.138-2.342
			c5.484,0,10.073,1.277,13.762,3.831c3.688,2.554,6.573,5.912,8.654,10.073l-0.284-12.627h9.932v58.737h-9.932l0.284-12.627
			c-1.986,3.973-4.895,7.26-8.726,9.86C684.997,639.509,680.386,640.808,674.994,640.808z M677.123,632.154
			c3.121,0,5.934-0.545,8.441-1.636c2.505-1.091,4.633-2.609,6.385-4.556c1.749-1.944,3.121-4.27,4.114-6.975
			c0.993-2.704,1.49-5.622,1.49-8.754c0-3.131-0.497-6.025-1.49-8.682c-0.993-2.655-2.365-4.98-4.114-6.974
			c-1.751-1.993-3.879-3.536-6.385-4.627c-2.507-1.091-5.32-1.638-8.441-1.638c-6.243,0-11.115,2.041-14.614,6.12
			c-3.5,4.081-5.25,9.3-5.25,15.658c0,6.453,1.75,11.742,5.25,15.87C666.007,630.09,670.88,632.154,677.123,632.154z"/>
		<path fill="#D1D3D4" d="M721.386,580.936h10.925l15.606,33.908c0.472,1.042,0.898,2.129,1.277,3.264
			c0.377,1.135,0.709,2.224,0.993,3.264c0.377,1.135,0.709,2.318,0.993,3.547c0.188-1.229,0.472-2.412,0.851-3.547
			c0.284-1.04,0.614-2.129,0.993-3.264c0.377-1.135,0.803-2.222,1.277-3.264l15.323-33.908h10.215l-28.092,59.872h-1.844
			L721.386,580.936z"/>
		<path fill="#D1D3D4" d="M798,613.568c0.661,5.675,2.837,10.239,6.526,13.691c3.689,3.453,8.796,5.179,15.323,5.179
			c4.445,0,8.18-0.757,11.208-2.271c3.026-1.512,5.484-3.356,7.377-5.533l6.101,5.959c-2.744,3.028-6.101,5.486-10.073,7.378
			c-3.973,1.891-8.845,2.837-14.613,2.837c-4.824,0-9.2-0.78-13.124-2.341c-3.926-1.561-7.26-3.711-10.002-6.455
			c-2.745-2.742-4.873-5.981-6.385-9.719c-1.514-3.735-2.27-7.732-2.27-11.989c0-4.256,0.78-8.251,2.341-11.988
			c1.561-3.735,3.689-6.998,6.385-9.789c2.696-2.789,5.91-4.966,9.647-6.526c3.735-1.562,7.732-2.342,11.989-2.342
			c4.729,0,8.96,0.852,12.698,2.554c3.735,1.703,6.881,4.068,9.435,7.095c2.554,3.027,4.469,6.621,5.746,10.782
			c1.277,4.163,1.82,8.654,1.632,13.479H798z M838.009,606.048c-0.19-2.554-0.733-4.917-1.631-7.094
			c-0.9-2.175-2.177-4.065-3.831-5.676c-1.656-1.606-3.643-2.884-5.959-3.83c-2.319-0.944-5.037-1.419-8.158-1.419
			c-5.675,0-10.286,1.656-13.833,4.966c-3.547,3.312-5.699,7.661-6.456,13.053H838.009z"/>
		<path fill="#6D6E71" d="M884.686,640.808c-6.527,0-11.872-1.348-16.032-4.043c-4.164-2.696-7.189-5.889-9.081-9.577l7.662-4.398
			c1.703,2.838,3.901,5.203,6.597,7.094c2.696,1.894,6.172,2.838,10.428,2.838c3.973,0,7.045-0.78,9.222-2.341
			c2.174-1.561,3.263-3.711,3.263-6.455c0-1.607-0.333-2.931-0.993-3.973c-0.663-1.04-1.632-1.938-2.909-2.696
			c-1.277-0.756-2.862-1.44-4.753-2.057c-1.893-0.614-4.114-1.3-6.668-2.058c-2.271-0.66-4.494-1.419-6.668-2.27
			c-2.177-0.852-4.068-1.938-5.675-3.264c-1.609-1.323-2.908-2.955-3.901-4.895c-0.993-1.938-1.49-4.278-1.49-7.023
			c0-5.107,1.867-9.056,5.604-11.847c3.735-2.789,8.3-4.186,13.691-4.186c4.54,0,8.417,0.852,11.634,2.554
			c3.214,1.703,5.864,4.021,7.945,6.952l-6.81,5.25c-1.514-2.08-3.312-3.711-5.392-4.896c-2.082-1.181-4.54-1.773-7.377-1.773
			c-3.217,0-5.724,0.688-7.52,2.058c-1.798,1.372-2.696,3.192-2.696,5.462c0,1.419,0.235,2.603,0.709,3.548
			c0.472,0.946,1.252,1.773,2.341,2.482c1.086,0.709,2.529,1.372,4.327,1.986c1.796,0.616,3.973,1.301,6.526,2.058
			c2.458,0.662,4.871,1.442,7.236,2.341c2.363,0.899,4.445,2.035,6.243,3.404c1.796,1.373,3.239,3.051,4.327,5.037
			c1.086,1.986,1.632,4.398,1.632,7.235c0,5.015-1.727,9.176-5.179,12.485C897.477,639.155,892.063,640.808,884.686,640.808z"/>
		<path fill="#6D6E71" d="M914.763,580.936h10.783l12.628,32.348c0.377,1.042,0.756,2.058,1.135,3.051
			c0.377,0.993,0.66,1.964,0.852,2.908c0.283,1.042,0.518,2.082,0.709,3.121c0.188-1.039,0.473-2.079,0.852-3.121
			c0.283-0.944,0.59-1.915,0.922-2.908c0.33-0.993,0.73-2.009,1.205-3.051l15.324-33.199h1.275l15.607,33.058
			c0.943,2.177,1.703,4.21,2.27,6.101c0.377,1.042,0.66,2.082,0.852,3.121c0.188-1.039,0.426-2.079,0.709-3.121
			c0.473-2.079,1.135-4.114,1.986-6.101l12.627-32.206h10.074l-24.404,60.015h-1.418l-16.174-35.328
			c-0.947-1.891-1.656-3.782-2.129-5.675c-0.379-1.04-0.615-2.033-0.709-2.979c-0.189,1.042-0.475,2.081-0.852,3.121
			c-0.283,0.852-0.592,1.773-0.922,2.767c-0.332,0.993-0.688,1.915-1.064,2.767l-16.6,35.328h-1.418L914.763,580.936z"/>
		<path fill="#6D6E71" d="M1023.866,563.911c-1.893,0-3.547-0.639-4.965-1.915c-1.419-1.277-2.129-2.955-2.129-5.037
			c0-2.079,0.71-3.782,2.129-5.107c1.418-1.323,3.072-1.986,4.965-1.986c1.892,0,3.547,0.663,4.966,1.986
			c1.419,1.325,2.129,3.028,2.129,5.107c0,2.082-0.71,3.76-2.129,5.037C1027.413,563.272,1025.757,563.911,1023.866,563.911z
			 M1018.901,580.936h9.931v58.737h-9.931V580.936z"/>
		<path fill="#6D6E71" d="M1053.943,589.307h-9.506v-8.371h9.506v-26.673c0-6.62,1.512-11.422,4.54-14.401
			c3.025-2.979,6.951-4.469,11.775-4.469c3.594,0,6.598,0.674,9.01,2.018c2.411,1.346,4.373,3.123,5.888,5.334l-6.526,5.843
			c-0.947-1.228-1.939-2.221-2.979-2.979c-1.042-0.756-2.554-1.135-4.54-1.135c-2.177,0-3.926,0.707-5.25,2.122
			c-1.325,1.414-1.986,4.003-1.986,7.771v26.569h15.749v8.371h-15.749v50.366h-9.931V589.307z"/>
		<path fill="#6D6E71" d="M1115.231,640.951c-2.27,0-4.358-0.333-6.265-0.993c-1.906-0.661-3.58-1.749-5.019-3.264
			c-1.441-1.512-2.567-3.476-3.383-5.888c-0.816-2.412-1.224-5.367-1.224-8.867v-32.632h-9.08v-8.371h9.08v-30.646h9.932v30.646
			h16.457v8.371h-16.457v32.773c0,3.973,0.613,6.668,1.844,8.087c1.229,1.419,2.931,2.128,5.107,2.128
			c1.986,0,3.569-0.354,4.753-1.063c1.182-0.71,2.246-1.49,3.192-2.342l5.392,6.243c-1.326,1.325-3.146,2.625-5.462,3.901
			C1121.78,640.312,1118.825,640.951,1115.231,640.951z"/>
	</g>
	<g>
		<g>
			<linearGradient id="SVGID_1_" gradientUnits="userSpaceOnUse" x1="480.6968" y1="626.3754" x2="480.6968" y2="626.3754">
				<stop  offset="0.0099" style="stop-color:#2BDAFA"/>
				<stop  offset="1" style="stop-color:#058BA4"/>
			</linearGradient>
			<path fill="url(#SVGID_1_)" d="M480.697,626.375"/>
			<linearGradient id="SVGID_2_" gradientUnits="userSpaceOnUse" x1="519.4745" y1="546.4986" x2="519.4745" y2="671.4986">
				<stop  offset="0.0099" style="stop-color:#2BDAFA"/>
				<stop  offset="1" style="stop-color:#058BA4"/>
			</linearGradient>
			<path fill="url(#SVGID_2_)" d="M519.476,575.205l30.007,17.324c1.132,0.653,2.536,0.608,3.623-0.118l0,0
				c2.114-1.411,2.014-4.55-0.185-5.825l-33.444-19.383l-31.873,18.402l73.978,42.782v3.909l-42.105,24.309l-43.822-25.319
				c-1.071-0.619-2.392-0.619-3.463-0.001l-0.021,0.012c-2.308,1.333-2.308,4.664,0,5.997l47.306,27.312l49.034-28.31v-11.906
				l-67.057-38.78L519.476,575.205z"/>
			<linearGradient id="SVGID_3_" gradientUnits="userSpaceOnUse" x1="519.4918" y1="546.4986" x2="519.4918" y2="671.4986">
				<stop  offset="0.0099" style="stop-color:#2BDAFA"/>
				<stop  offset="1" style="stop-color:#058BA4"/>
			</linearGradient>
			<path fill="url(#SVGID_3_)" d="M519.476,640.769l-30.124-17.392c-1.071-0.618-2.391-0.618-3.462,0l0,0
				c-2.308,1.332-2.308,4.664,0,5.996l33.587,19.397l32.256-18.623l-74.361-43.005v-3.466l42.105-24.309l43.891,25.299
				c1.062,0.612,2.369,0.612,3.431-0.001l0.029-0.016c2.289-1.321,2.289-4.625,0-5.946l-47.35-27.337l-49.034,28.31v11.463
				l67.441,39.002L519.476,640.769z"/>
		</g>
		<linearGradient id="SVGID_4_" gradientUnits="userSpaceOnUse" x1="549.9086" y1="546.4984" x2="549.9086" y2="671.4984">
			<stop  offset="0.0099" style="stop-color:#2BDAFA"/>
			<stop  offset="1" style="stop-color:#058BA4"/>
		</linearGradient>
		<polyline fill="url(#SVGID_4_)" points="545.209,626.375 565.271,638.167 558.024,642.351 534.547,628.214 		"/>
		<linearGradient id="SVGID_5_" gradientUnits="userSpaceOnUse" x1="493.0858" y1="546.4986" x2="493.0858" y2="671.4986">
			<stop  offset="0.0099" style="stop-color:#2BDAFA"/>
			<stop  offset="1" style="stop-color:#058BA4"/>
		</linearGradient>
		<polyline fill="url(#SVGID_5_)" points="512.134,591.788 481.36,573.374 474.037,577.601 501.453,593.615 		"/>
	</g>
</g>
</svg>
